<?xml version="1.0" encoding="UTF-8"?>
<svg id="Layer_1" data-name="Layer 1" xmlns="http://www.w3.org/2000/svg" viewBox="0 0 360 360">
  <defs>
    <style>
      .cls-1 {
        fill: #3c91e6;
        stroke-width: 0px;
      }
    </style>
  </defs>
  <path class="cls-1" d="m357.1,275.66c-8.82-51.02-34.35-91.46-77.12-120.78-4.11-2.82-4.86-4.81-2.24-9.16,8.68-14.4,16.96-29.04,25.36-43.62,3.28-5.68,4.03-11.52.52-17.4-6.88-11.51-21.73-11.13-28.9.9-8.83,14.83-17.66,29.67-25.89,44.83-2.76,5.09-5.32,5.35-10.25,3.66-39.43-13.48-78.94-13.18-118.31.27-4.24,1.45-6.14.77-8.26-3-8.34-14.85-16.96-29.56-25.51-44.3-5.92-10.21-14.74-13.39-23.48-8.52-8.9,4.96-10.91,14.82-5.06,24.95,7.87,13.62,15.37,27.46,23.79,40.73,3.67,5.77,2.15,7.89-2.86,11.38C36.77,184.91,11.61,225.15,2.9,275.67c-1.38,7.99-1.2,8.03,7.22,8.03,56.48,0,112.96,0,169.45,0s113.84,0,170.76,0c7.96,0,8.16-.12,6.79-8.04Zm-262.46-39.23c-6.81-.27-12.84-6.42-12.89-13.15-.09-11.83,9.58-22.65,20.07-22.46,8.19.15,12.95,5.66,12.75,14.74-.25,11.27-9.8,21.27-19.92,20.87Zm170.52,0c-10.24.12-19.57-10.51-19.49-22.22.06-8.3,5.31-13.49,13.57-13.4,10.15.11,19.49,10.6,19.33,21.72-.12,8.08-5.64,13.81-13.41,13.9Z"/>
</svg>