<?xml version="1.0" encoding="UTF-8"?>
<svg id="Layer_1" data-name="Layer 1" xmlns="http://www.w3.org/2000/svg" viewBox="0 0 360 360">
  <defs>
    <style>
      .cls-1 {
        fill: #3c91e6;
        stroke-width: 0px;
      }
    </style>
  </defs>
  <path class="cls-1" d="m55.16,194.6c.4-25.5,5.34-47.63,20.81-66.15,15.51-18.58,35.4-28.32,59.85-27.87,9.19.17,17.7,3.4,26.14,6.67,21.47,8.31,18.54,8.13,39.98-.12,12.31-4.74,24.74-8.5,38.19-7.38,23.18,1.94,42.21,11.32,56.02,30.5,1.92,2.67,1.51,3.69-1.12,5.44-17.22,11.43-28.18,26.91-29.99,47.98-2.33,27.18,12.03,51.61,36.93,62.67,2.79,1.24,3.43,2.28,2.45,5.27-7.63,23.32-20.18,43.78-35.88,62.43-4.9,5.82-10.58,10.87-17.52,14.18-11.88,5.67-23.84,4.79-35.7-.12-8.85-3.66-17.56-7.61-27.43-7.8-8.52-.16-16.62,1.37-24.45,4.66-4.47,1.88-8.98,3.68-13.57,5.24-13.65,4.64-26.03,2.19-37.18-6.91-11.15-9.11-19.38-20.7-27.08-32.61-19.28-29.81-29.4-62.54-30.43-96.09Z"/>
  <path class="cls-1" d="m175.96,93.7c2.49-28.02,16.17-48.33,41.64-60.48,6.87-3.28,14.13-5.27,21.79-5.7,2.07-.12,3,.2,3.27,2.66,3.5,31.52-19.3,64.36-49.85,71.56-3.82.9-7.72,1.11-11.65,1.26-3.4.13-5.03-.97-4.94-4.45.04-1.61-.16-3.23-.26-4.85Z"/>
</svg>