<?xml version="1.0" encoding="UTF-8"?>
<svg id="Layer_1" data-name="Layer 1" xmlns="http://www.w3.org/2000/svg" viewBox="0 0 360 360">
  <defs>
    <style>
      .cls-1 {
        fill: #3c91e6;
        stroke-width: 0px;
      }
    </style>
  </defs>
  <path class="cls-1" d="m27.61,172.55c0-46.73.06-93.46-.11-140.2-.02-4.04.81-4.87,4.86-4.86,46.73.18,93.46.11,140.19.11-.18,2.68-.51,5.37-.51,8.05-.03,43.1-.13,86.2.11,129.3.03,5.74-1.68,7.1-7.21,7.07-43.1-.22-86.2-.13-129.3-.1-2.67,0-5.42-.52-8.02.61Z"/>
  <path class="cls-1" d="m187.45,27.61c46.73,0,93.46.06,140.19-.11,4.04-.02,4.87.81,4.86,4.86-.18,46.73-.11,93.46-.11,140.2-2.6-1.13-5.35-.61-8.02-.61-43.1-.04-86.2-.12-129.3.1-5.53.03-7.24-1.33-7.21-7.07.24-43.1.14-86.2.11-129.3,0-2.68-.33-5.37-.51-8.05Z"/>
  <path class="cls-1" d="m172.55,332.39c-46.62,0-93.25-.06-139.87.11-4.22.02-5.19-.95-5.18-5.18.17-46.62.11-93.25.11-139.87,2.68.18,5.37.51,8.05.51,43.11.03,86.23.13,129.34-.11,5.64-.03,7.16,1.49,7.13,7.13-.23,43.11-.14,86.23-.11,129.35,0,2.68.34,5.37.51,8.05Z"/>
  <path class="cls-1" d="m332.39,187.45c0,46.62-.06,93.25.11,139.87.02,4.22-.95,5.19-5.18,5.18-46.62-.17-93.24-.11-139.87-.11.18-2.68.51-5.37.51-8.05.03-43.12.13-86.23-.11-129.35-.03-5.64,1.49-7.16,7.13-7.13,43.11.23,86.23.14,129.34.11,2.68,0,5.37-.34,8.05-.51Z"/>
</svg>